<svg width="355" height="33" viewBox="0 0 355 33" fill="none" xmlns="http://www.w3.org/2000/svg">
<path d="M54.4403 1.51702C54.7776 1.18598 55.2352 1 55.7124 1H67.6798C69.2792 1 70.0832 2.89433 68.9565 4.00791L42.2846 30.3682C41.9468 30.702 41.4873 30.8897 41.0079 30.8897H28.8488C27.2463 30.8897 26.4437 28.9891 27.5767 27.8773L54.4403 1.51702Z" fill="#01EE9F"/>
<path d="M55.7123 31C54.1097 31 53.3071 29.0992 54.4403 27.9875L68.9292 13.7736C70.0624 12.6619 72 13.4492 72 15.0214V29.2353C72 30.2099 71.1946 31 70.2012 31H55.7123Z" fill="#01EE9F"/>
<path d="M27.3939 1.51702C27.7313 1.18598 28.1889 1 28.6661 1H40.6335C42.2329 1 43.0369 2.89433 41.9102 4.00791L15.2382 30.3682C14.9005 30.702 14.441 30.8897 13.9616 30.8897H1.80245C0.199961 30.8897 -0.602676 28.9891 0.530318 27.8773L27.3939 1.51702Z" fill="#01EE9F"/>
<path d="M81.992 21V4.2H85.208L92.36 16.056H90.656L97.688 4.2H100.88L100.928 21H97.28L97.256 9.792H97.928L92.312 19.224H90.56L84.824 9.792H85.64V21H81.992ZM113.074 21.288C111.746 21.288 110.514 21.072 109.378 20.64C108.258 20.208 107.282 19.6 106.45 18.816C105.634 18.032 104.994 17.112 104.53 16.056C104.082 15 103.858 13.848 103.858 12.6C103.858 11.352 104.082 10.2 104.53 9.144C104.994 8.088 105.642 7.168 106.474 6.384C107.306 5.6 108.282 4.992 109.402 4.56C110.522 4.128 111.738 3.912 113.05 3.912C114.378 3.912 115.594 4.128 116.698 4.56C117.818 4.992 118.786 5.6 119.602 6.384C120.434 7.168 121.082 8.088 121.546 9.144C122.01 10.184 122.242 11.336 122.242 12.6C122.242 13.848 122.01 15.008 121.546 16.08C121.082 17.136 120.434 18.056 119.602 18.84C118.786 19.608 117.818 20.208 116.698 20.64C115.594 21.072 114.386 21.288 113.074 21.288ZM113.05 17.976C113.802 17.976 114.49 17.848 115.114 17.592C115.754 17.336 116.314 16.968 116.794 16.488C117.274 16.008 117.642 15.44 117.898 14.784C118.17 14.128 118.306 13.4 118.306 12.6C118.306 11.8 118.17 11.072 117.898 10.416C117.642 9.76 117.274 9.192 116.794 8.712C116.33 8.232 115.778 7.864 115.138 7.608C114.498 7.352 113.802 7.224 113.05 7.224C112.298 7.224 111.602 7.352 110.962 7.608C110.338 7.864 109.786 8.232 109.306 8.712C108.826 9.192 108.45 9.76 108.178 10.416C107.922 11.072 107.794 11.8 107.794 12.6C107.794 13.384 107.922 14.112 108.178 14.784C108.45 15.44 108.818 16.008 109.282 16.488C109.762 16.968 110.322 17.336 110.962 17.592C111.602 17.848 112.298 17.976 113.05 17.976ZM129.665 21L122.417 4.2H126.617L132.953 19.08H130.481L136.913 4.2H140.777L133.505 21H129.665ZM145.756 10.968H153.844V13.992H145.756V10.968ZM146.044 17.88H155.188V21H142.18V4.2H154.876V7.32H146.044V17.88ZM165.745 21.288C163.361 21.288 161.497 20.624 160.153 19.296C158.809 17.968 158.137 16.072 158.137 13.608V4.2H162.025V13.464C162.025 15.064 162.353 16.216 163.009 16.92C163.665 17.624 164.585 17.976 165.769 17.976C166.953 17.976 167.873 17.624 168.529 16.92C169.185 16.216 169.513 15.064 169.513 13.464V4.2H173.353V13.608C173.353 16.072 172.681 17.968 171.337 19.296C169.993 20.624 168.129 21.288 165.745 21.288ZM177.195 21V4.2H184.467C185.971 4.2 187.267 4.448 188.355 4.944C189.443 5.424 190.283 6.12 190.875 7.032C191.467 7.944 191.763 9.032 191.763 10.296C191.763 11.544 191.467 12.624 190.875 13.536C190.283 14.448 189.443 15.152 188.355 15.648C187.267 16.128 185.971 16.368 184.467 16.368H179.355L181.083 14.616V21H177.195ZM181.083 15.048L179.355 13.2H184.251C185.451 13.2 186.347 12.944 186.939 12.432C187.531 11.92 187.827 11.208 187.827 10.296C187.827 9.368 187.531 8.648 186.939 8.136C186.347 7.624 185.451 7.368 184.251 7.368H179.355L181.083 5.52V15.048ZM199.045 21V4.944H192.877V4.2H206.005V4.944H199.837V21H199.045ZM209.838 12.096H219.102V12.84H209.838V12.096ZM209.982 20.256H220.518V21H209.166V4.2H220.182V4.944H209.982V20.256ZM232.063 21.096C230.831 21.096 229.687 20.888 228.631 20.472C227.575 20.04 226.655 19.44 225.871 18.672C225.087 17.904 224.479 17.008 224.047 15.984C223.615 14.944 223.399 13.816 223.399 12.6C223.399 11.384 223.615 10.264 224.047 9.24C224.479 8.2 225.087 7.296 225.871 6.528C226.655 5.76 227.575 5.168 228.631 4.752C229.687 4.32 230.831 4.104 232.063 4.104C233.199 4.104 234.271 4.288 235.279 4.656C236.287 5.024 237.159 5.584 237.895 6.336L237.391 6.864C236.639 6.144 235.815 5.632 234.919 5.328C234.039 5.008 233.095 4.848 232.087 4.848C230.967 4.848 229.927 5.048 228.967 5.448C228.007 5.832 227.167 6.376 226.447 7.08C225.743 7.784 225.191 8.608 224.791 9.552C224.407 10.48 224.215 11.496 224.215 12.6C224.215 13.704 224.407 14.728 224.791 15.672C225.191 16.6 225.743 17.416 226.447 18.12C227.167 18.824 228.007 19.376 228.967 19.776C229.927 20.16 230.967 20.352 232.087 20.352C233.095 20.352 234.039 20.2 234.919 19.896C235.815 19.576 236.639 19.048 237.391 18.312L237.895 18.84C237.159 19.592 236.287 20.16 235.279 20.544C234.271 20.912 233.199 21.096 232.063 21.096ZM242.213 21V4.2H242.885L255.221 20.04H254.813V4.2H255.629V21H254.957L242.621 5.16H243.029V21H242.213ZM268.743 21.096C267.511 21.096 266.367 20.888 265.311 20.472C264.255 20.04 263.335 19.44 262.551 18.672C261.767 17.904 261.159 17.008 260.727 15.984C260.295 14.944 260.079 13.816 260.079 12.6C260.079 11.384 260.295 10.264 260.727 9.24C261.159 8.2 261.767 7.296 262.551 6.528C263.335 5.76 264.255 5.168 265.311 4.752C266.367 4.32 267.511 4.104 268.743 4.104C269.991 4.104 271.143 4.32 272.199 4.752C273.255 5.168 274.167 5.76 274.935 6.528C275.719 7.296 276.327 8.2 276.759 9.24C277.207 10.264 277.431 11.384 277.431 12.6C277.431 13.816 277.207 14.944 276.759 15.984C276.327 17.008 275.719 17.904 274.935 18.672C274.167 19.44 273.255 20.04 272.199 20.472C271.143 20.888 269.991 21.096 268.743 21.096ZM268.743 20.352C269.863 20.352 270.903 20.16 271.863 19.776C272.823 19.392 273.655 18.848 274.359 18.144C275.079 17.44 275.631 16.624 276.015 15.696C276.415 14.752 276.615 13.72 276.615 12.6C276.615 11.48 276.415 10.456 276.015 9.528C275.631 8.584 275.079 7.76 274.359 7.056C273.655 6.352 272.823 5.808 271.863 5.424C270.903 5.04 269.863 4.848 268.743 4.848C267.639 4.848 266.607 5.04 265.647 5.424C264.687 5.808 263.847 6.352 263.127 7.056C262.423 7.76 261.871 8.584 261.471 9.528C261.087 10.456 260.895 11.48 260.895 12.6C260.895 13.72 261.087 14.752 261.471 15.696C261.871 16.624 262.423 17.44 263.127 18.144C263.847 18.848 264.687 19.392 265.647 19.776C266.607 20.16 267.639 20.352 268.743 20.352ZM281.869 21V4.2H282.685V20.256H292.525V21H281.869ZM302.446 21.096C301.214 21.096 300.07 20.888 299.014 20.472C297.958 20.04 297.038 19.44 296.254 18.672C295.47 17.904 294.862 17.008 294.43 15.984C293.998 14.944 293.782 13.816 293.782 12.6C293.782 11.384 293.998 10.264 294.43 9.24C294.862 8.2 295.47 7.296 296.254 6.528C297.038 5.76 297.958 5.168 299.014 4.752C300.07 4.32 301.214 4.104 302.446 4.104C303.694 4.104 304.846 4.32 305.902 4.752C306.958 5.168 307.87 5.76 308.638 6.528C309.422 7.296 310.03 8.2 310.462 9.24C310.91 10.264 311.134 11.384 311.134 12.6C311.134 13.816 310.91 14.944 310.462 15.984C310.03 17.008 309.422 17.904 308.638 18.672C307.87 19.44 306.958 20.04 305.902 20.472C304.846 20.888 303.694 21.096 302.446 21.096ZM302.446 20.352C303.566 20.352 304.606 20.16 305.566 19.776C306.526 19.392 307.358 18.848 308.062 18.144C308.782 17.44 309.334 16.624 309.718 15.696C310.118 14.752 310.318 13.72 310.318 12.6C310.318 11.48 310.118 10.456 309.718 9.528C309.334 8.584 308.782 7.76 308.062 7.056C307.358 6.352 306.526 5.808 305.566 5.424C304.606 5.04 303.566 4.848 302.446 4.848C301.342 4.848 300.31 5.04 299.35 5.424C298.39 5.808 297.55 6.352 296.83 7.056C296.126 7.76 295.574 8.584 295.174 9.528C294.79 10.456 294.598 11.48 294.598 12.6C294.598 13.72 294.79 14.752 295.174 15.696C295.574 16.624 296.126 17.44 296.83 18.144C297.55 18.848 298.39 19.392 299.35 19.776C300.31 20.16 301.342 20.352 302.446 20.352ZM322.604 21.096C321.356 21.096 320.196 20.888 319.124 20.472C318.068 20.04 317.14 19.44 316.34 18.672C315.556 17.904 314.948 17.008 314.516 15.984C314.084 14.944 313.868 13.816 313.868 12.6C313.868 11.384 314.084 10.264 314.516 9.24C314.948 8.2 315.556 7.296 316.34 6.528C317.14 5.76 318.068 5.168 319.124 4.752C320.196 4.32 321.356 4.104 322.604 4.104C323.772 4.104 324.868 4.288 325.892 4.656C326.916 5.024 327.788 5.576 328.508 6.312L328.028 6.864C327.26 6.128 326.428 5.608 325.532 5.304C324.636 5 323.668 4.848 322.628 4.848C321.492 4.848 320.436 5.048 319.46 5.448C318.5 5.832 317.66 6.376 316.94 7.08C316.22 7.784 315.66 8.608 315.26 9.552C314.876 10.48 314.684 11.496 314.684 12.6C314.684 13.704 314.876 14.728 315.26 15.672C315.66 16.6 316.22 17.416 316.94 18.12C317.66 18.824 318.5 19.376 319.46 19.776C320.436 20.16 321.492 20.352 322.628 20.352C323.652 20.352 324.62 20.2 325.532 19.896C326.46 19.576 327.284 19.056 328.004 18.336L328.484 18.936C327.748 19.656 326.868 20.2 325.844 20.568C324.82 20.92 323.74 21.096 322.604 21.096ZM327.716 18.888V12.72H328.484V18.936L327.716 18.888ZM334.158 21V4.2H334.974V21H334.158ZM338.215 21L345.991 4.2H346.783L354.559 21H353.671L346.207 4.752H346.567L339.103 21H338.215ZM340.903 16.08L341.215 15.384H351.487L351.799 16.08H340.903Z" fill="#F5F5F5"/>
<path d="M81.024 32V26.4H81.296V32H81.024ZM90.3043 32V26.4H90.5283L93.1683 30.984H93.0483L95.6723 26.4H95.8963L95.9043 32H95.6403L95.6323 26.8H95.7203L93.1763 31.224H93.0323L90.4723 26.8H90.5683V32H90.3043ZM104.913 32V26.4H106.857C107.321 26.4 107.718 26.4747 108.049 26.624C108.385 26.7733 108.641 26.9867 108.817 27.264C108.993 27.536 109.081 27.8667 109.081 28.256C109.081 28.6453 108.993 28.9787 108.817 29.256C108.641 29.5333 108.385 29.7467 108.049 29.896C107.718 30.0453 107.321 30.12 106.857 30.12H105.065L105.185 29.992V32H104.913ZM105.185 29.992L105.065 29.872H106.873C107.502 29.872 107.982 29.7307 108.313 29.448C108.649 29.1653 108.817 28.768 108.817 28.256C108.817 27.744 108.649 27.3493 108.313 27.072C107.982 26.7893 107.502 26.648 106.873 26.648H105.065L105.185 26.52V29.992ZM119.712 32.032C119.03 32.032 118.491 31.832 118.096 31.432C117.707 31.032 117.512 30.4347 117.512 29.64V26.4H117.784V29.632C117.784 30.3573 117.952 30.8987 118.288 31.256C118.624 31.608 119.099 31.784 119.712 31.784C120.326 31.784 120.8 31.608 121.136 31.256C121.472 30.8987 121.64 30.3573 121.64 29.632V26.4H121.904V29.64C121.904 30.4347 121.707 31.032 121.312 31.432C120.923 31.832 120.39 32.032 119.712 32.032ZM130.864 32V26.4H131.136V31.752H134.416V32H130.864ZM143.826 32.032C143.415 32.032 143.026 31.96 142.658 31.816C142.295 31.6667 142.018 31.48 141.826 31.256L141.97 31.064C142.151 31.2667 142.407 31.44 142.738 31.584C143.074 31.7227 143.434 31.792 143.818 31.792C144.207 31.792 144.527 31.7387 144.778 31.632C145.029 31.5253 145.213 31.384 145.33 31.208C145.453 31.0267 145.514 30.8267 145.514 30.608C145.514 30.352 145.45 30.1467 145.322 29.992C145.194 29.8373 145.023 29.7147 144.81 29.624C144.602 29.5333 144.373 29.4587 144.122 29.4C143.877 29.3413 143.626 29.28 143.37 29.216C143.119 29.1467 142.887 29.0613 142.674 28.96C142.466 28.8533 142.298 28.7093 142.17 28.528C142.047 28.3413 141.986 28.1013 141.986 27.808C141.986 27.5573 142.053 27.3227 142.186 27.104C142.319 26.8853 142.527 26.7093 142.81 26.576C143.093 26.4373 143.455 26.368 143.898 26.368C144.202 26.368 144.501 26.416 144.794 26.512C145.093 26.6027 145.346 26.7253 145.554 26.88L145.434 27.096C145.21 26.9307 144.962 26.808 144.69 26.728C144.418 26.648 144.157 26.608 143.906 26.608C143.533 26.608 143.221 26.664 142.97 26.776C142.725 26.8827 142.543 27.0267 142.426 27.208C142.309 27.3893 142.25 27.5893 142.25 27.808C142.25 28.0693 142.314 28.2773 142.442 28.432C142.57 28.5867 142.738 28.7093 142.946 28.8C143.159 28.8907 143.391 28.9653 143.642 29.024C143.893 29.0827 144.143 29.1467 144.394 29.216C144.645 29.28 144.874 29.3653 145.082 29.472C145.295 29.5787 145.463 29.7227 145.586 29.904C145.714 30.08 145.778 30.312 145.778 30.6C145.778 30.8507 145.709 31.0853 145.57 31.304C145.437 31.5227 145.223 31.6987 144.93 31.832C144.642 31.9653 144.274 32.032 143.826 32.032ZM154.198 32V26.4H154.47V32H154.198ZM165.798 32.032C165.388 32.032 165.006 31.9627 164.654 31.824C164.302 31.68 163.996 31.48 163.734 31.224C163.473 30.968 163.27 30.6693 163.126 30.328C162.982 29.9813 162.91 29.6053 162.91 29.2C162.91 28.7947 162.982 28.4213 163.126 28.08C163.27 27.7333 163.473 27.432 163.734 27.176C163.996 26.92 164.302 26.7227 164.654 26.584C165.006 26.44 165.388 26.368 165.798 26.368C166.214 26.368 166.598 26.44 166.95 26.584C167.302 26.7227 167.606 26.92 167.862 27.176C168.124 27.432 168.326 27.7333 168.47 28.08C168.62 28.4213 168.694 28.7947 168.694 29.2C168.694 29.6053 168.62 29.9813 168.47 30.328C168.326 30.6693 168.124 30.968 167.862 31.224C167.606 31.48 167.302 31.68 166.95 31.824C166.598 31.9627 166.214 32.032 165.798 32.032ZM165.798 31.784C166.172 31.784 166.518 31.72 166.838 31.592C167.158 31.464 167.436 31.2827 167.67 31.048C167.91 30.8133 168.094 30.5413 168.222 30.232C168.356 29.9173 168.422 29.5733 168.422 29.2C168.422 28.8267 168.356 28.4853 168.222 28.176C168.094 27.8613 167.91 27.5867 167.67 27.352C167.436 27.1173 167.158 26.936 166.838 26.808C166.518 26.68 166.172 26.616 165.798 26.616C165.43 26.616 165.086 26.68 164.766 26.808C164.446 26.936 164.166 27.1173 163.926 27.352C163.692 27.5867 163.508 27.8613 163.374 28.176C163.246 28.4853 163.182 28.8267 163.182 29.2C163.182 29.5733 163.246 29.9173 163.374 30.232C163.508 30.5413 163.692 30.8133 163.926 31.048C164.166 31.2827 164.446 31.464 164.766 31.592C165.086 31.72 165.43 31.784 165.798 31.784ZM177.134 32V26.4H177.358L181.47 31.68H181.334V26.4H181.606V32H181.382L177.27 26.72H177.406V32H177.134ZM189.649 32L192.241 26.4H192.505L195.097 32H194.801L192.313 26.584H192.433L189.945 32H189.649ZM190.545 30.36L190.649 30.128H194.073L194.177 30.36H190.545ZM203.147 32V26.4H203.371L207.483 31.68H207.347V26.4H207.619V32H207.395L203.283 26.72H203.419V32H203.147ZM216.631 32V26.4H218.791C219.388 26.4 219.908 26.5227 220.351 26.768C220.794 27.008 221.138 27.3387 221.383 27.76C221.634 28.176 221.759 28.656 221.759 29.2C221.759 29.744 221.634 30.2267 221.383 30.648C221.138 31.064 220.794 31.3947 220.351 31.64C219.908 31.88 219.388 32 218.791 32H216.631ZM216.903 31.752H218.775C219.324 31.752 219.802 31.6427 220.207 31.424C220.618 31.2053 220.932 30.904 221.151 30.52C221.375 30.136 221.487 29.696 221.487 29.2C221.487 28.704 221.375 28.264 221.151 27.88C220.932 27.496 220.618 27.1947 220.207 26.976C219.802 26.7573 219.324 26.648 218.775 26.648H216.903V31.752ZM232.52 32.032C232.11 32.032 231.728 31.9627 231.376 31.824C231.024 31.68 230.718 31.48 230.456 31.224C230.195 30.968 229.992 30.6693 229.848 30.328C229.704 29.9813 229.632 29.6053 229.632 29.2C229.632 28.7947 229.704 28.4213 229.848 28.08C229.992 27.7333 230.195 27.432 230.456 27.176C230.718 26.92 231.024 26.7227 231.376 26.584C231.728 26.44 232.11 26.368 232.52 26.368C232.936 26.368 233.32 26.44 233.672 26.584C234.024 26.7227 234.328 26.92 234.584 27.176C234.846 27.432 235.048 27.7333 235.192 28.08C235.342 28.4213 235.416 28.7947 235.416 29.2C235.416 29.6053 235.342 29.9813 235.192 30.328C235.048 30.6693 234.846 30.968 234.584 31.224C234.328 31.48 234.024 31.68 233.672 31.824C233.32 31.9627 232.936 32.032 232.52 32.032ZM232.52 31.784C232.894 31.784 233.24 31.72 233.56 31.592C233.88 31.464 234.158 31.2827 234.392 31.048C234.632 30.8133 234.816 30.5413 234.944 30.232C235.078 29.9173 235.144 29.5733 235.144 29.2C235.144 28.8267 235.078 28.4853 234.944 28.176C234.816 27.8613 234.632 27.5867 234.392 27.352C234.158 27.1173 233.88 26.936 233.56 26.808C233.24 26.68 232.894 26.616 232.52 26.616C232.152 26.616 231.808 26.68 231.488 26.808C231.168 26.936 230.888 27.1173 230.648 27.352C230.414 27.5867 230.23 27.8613 230.096 28.176C229.968 28.4853 229.904 28.8267 229.904 29.2C229.904 29.5733 229.968 29.9173 230.096 30.232C230.23 30.5413 230.414 30.8133 230.648 31.048C230.888 31.2827 231.168 31.464 231.488 31.592C231.808 31.72 232.152 31.784 232.52 31.784ZM255.159 32.032C254.748 32.032 254.367 31.9627 254.015 31.824C253.663 31.68 253.356 31.48 253.095 31.224C252.834 30.968 252.631 30.6693 252.487 30.328C252.343 29.9813 252.271 29.6053 252.271 29.2C252.271 28.7947 252.343 28.4213 252.487 28.08C252.631 27.7333 252.834 27.432 253.095 27.176C253.356 26.92 253.663 26.7227 254.015 26.584C254.367 26.44 254.748 26.368 255.159 26.368C255.575 26.368 255.959 26.44 256.311 26.584C256.663 26.7227 256.967 26.92 257.223 27.176C257.484 27.432 257.687 27.7333 257.831 28.08C257.98 28.4213 258.055 28.7947 258.055 29.2C258.055 29.6053 257.98 29.9813 257.831 30.328C257.687 30.6693 257.484 30.968 257.223 31.224C256.967 31.48 256.663 31.68 256.311 31.824C255.959 31.9627 255.575 32.032 255.159 32.032ZM255.159 31.784C255.532 31.784 255.879 31.72 256.199 31.592C256.519 31.464 256.796 31.2827 257.031 31.048C257.271 30.8133 257.455 30.5413 257.583 30.232C257.716 29.9173 257.783 29.5733 257.783 29.2C257.783 28.8267 257.716 28.4853 257.583 28.176C257.455 27.8613 257.271 27.5867 257.031 27.352C256.796 27.1173 256.519 26.936 256.199 26.808C255.879 26.68 255.532 26.616 255.159 26.616C254.791 26.616 254.447 26.68 254.127 26.808C253.807 26.936 253.527 27.1173 253.287 27.352C253.052 27.5867 252.868 27.8613 252.735 28.176C252.607 28.4853 252.543 28.8267 252.543 29.2C252.543 29.5733 252.607 29.9173 252.735 30.232C252.868 30.5413 253.052 30.8133 253.287 31.048C253.527 31.2827 253.807 31.464 254.127 31.592C254.447 31.72 254.791 31.784 255.159 31.784ZM276.318 28.92H279.006V29.96H276.318V28.92ZM276.414 32H275.118V26.4H279.35V27.44H276.414V32ZM289.675 32.096C288.88 32.096 288.259 31.8747 287.811 31.432C287.363 30.9893 287.139 30.3573 287.139 29.536V26.4H288.435V29.488C288.435 30.0213 288.544 30.4053 288.763 30.64C288.982 30.8747 289.288 30.992 289.683 30.992C290.078 30.992 290.384 30.8747 290.603 30.64C290.822 30.4053 290.931 30.0213 290.931 29.488V26.4H292.211V29.536C292.211 30.3573 291.987 30.9893 291.539 31.432C291.091 31.8747 290.47 32.096 289.675 32.096ZM301.518 32V27.456H299.726V26.4H304.606V27.456H302.814V32H301.518ZM314.658 32.096C313.863 32.096 313.242 31.8747 312.794 31.432C312.346 30.9893 312.122 30.3573 312.122 29.536V26.4H313.418V29.488C313.418 30.0213 313.527 30.4053 313.746 30.64C313.964 30.8747 314.271 30.992 314.666 30.992C315.06 30.992 315.367 30.8747 315.586 30.64C315.804 30.4053 315.914 30.0213 315.914 29.488V26.4H317.194V29.536C317.194 30.3573 316.97 30.9893 316.522 31.432C316.074 31.8747 315.452 32.096 314.658 32.096ZM325.434 32V26.4H327.858C328.36 26.4 328.792 26.4827 329.154 26.648C329.517 26.808 329.797 27.04 329.994 27.344C330.192 27.648 330.29 28.0107 330.29 28.432C330.29 28.848 330.192 29.208 329.994 29.512C329.797 29.8107 329.517 30.04 329.154 30.2C328.792 30.36 328.36 30.44 327.858 30.44H326.154L326.73 29.872V32H325.434ZM328.994 32L327.594 29.968H328.978L330.394 32H328.994ZM326.73 30.016L326.154 29.408H327.786C328.186 29.408 328.485 29.3227 328.682 29.152C328.88 28.976 328.978 28.736 328.978 28.432C328.978 28.1227 328.88 27.8827 328.682 27.712C328.485 27.5413 328.186 27.456 327.786 27.456H326.154L326.73 26.84V30.016ZM340.997 32.096C340.554 32.096 340.144 32.024 339.765 31.88C339.392 31.736 339.066 31.5333 338.789 31.272C338.517 31.0107 338.304 30.704 338.149 30.352C338 30 337.925 29.616 337.925 29.2C337.925 28.784 338 28.4 338.149 28.048C338.304 27.696 338.52 27.3893 338.797 27.128C339.074 26.8667 339.4 26.664 339.773 26.52C340.146 26.376 340.552 26.304 340.989 26.304C341.432 26.304 341.837 26.376 342.205 26.52C342.578 26.664 342.901 26.8667 343.173 27.128C343.45 27.3893 343.666 27.696 343.821 28.048C343.976 28.3947 344.053 28.7787 344.053 29.2C344.053 29.616 343.976 30.0027 343.821 30.36C343.666 30.712 343.45 31.0187 343.173 31.28C342.901 31.536 342.578 31.736 342.205 31.88C341.837 32.024 341.434 32.096 340.997 32.096ZM340.989 30.992C341.24 30.992 341.469 30.9493 341.677 30.864C341.89 30.7787 342.077 30.656 342.237 30.496C342.397 30.336 342.52 30.1467 342.605 29.928C342.696 29.7093 342.741 29.4667 342.741 29.2C342.741 28.9333 342.696 28.6907 342.605 28.472C342.52 28.2533 342.397 28.064 342.237 27.904C342.082 27.744 341.898 27.6213 341.685 27.536C341.472 27.4507 341.24 27.408 340.989 27.408C340.738 27.408 340.506 27.4507 340.293 27.536C340.085 27.6213 339.901 27.744 339.741 27.904C339.581 28.064 339.456 28.2533 339.365 28.472C339.28 28.6907 339.237 28.9333 339.237 29.2C339.237 29.4613 339.28 29.704 339.365 29.928C339.456 30.1467 339.578 30.336 339.733 30.496C339.893 30.656 340.08 30.7787 340.293 30.864C340.506 30.9493 340.738 30.992 340.989 30.992ZM352.171 32.04C352.054 32.04 351.952 31.9973 351.867 31.912C351.787 31.8267 351.747 31.7227 351.747 31.6C351.747 31.472 351.787 31.368 351.867 31.288C351.952 31.208 352.054 31.168 352.171 31.168C352.288 31.168 352.387 31.208 352.467 31.288C352.552 31.368 352.595 31.472 352.595 31.6C352.595 31.7227 352.552 31.8267 352.467 31.912C352.387 31.9973 352.288 32.04 352.171 32.04Z" fill="#F5F5F5"/>
</svg>
