<svg width="208" height="148" viewBox="0 0 208 148" fill="none" xmlns="http://www.w3.org/2000/svg">
<path d="M15.0986 30.7227C14.8544 30.4892 14.5208 30.4355 14.2021 30.5615C13.888 30.6859 13.7502 30.9111 13.75 31.1621V50.5879C13.75 50.8796 14.0209 51.25 14.5234 51.25H34.8477C35.2414 51.25 35.4735 51.0453 35.5732 50.8154C35.6251 50.6957 35.6361 50.5784 35.6182 50.4795C35.602 50.3904 35.556 50.2757 35.4229 50.1484L15.0986 30.7227ZM72.7881 13.75H56C55.6071 13.7501 55.3754 13.9543 55.2754 14.1836C55.2233 14.3032 55.2118 14.4206 55.2295 14.5195C55.2454 14.6086 55.2908 14.7235 55.4229 14.8506L92.8379 50.876C92.9775 51.0104 93.1839 51.0996 93.415 51.0996H110.472C110.865 51.0996 111.098 50.8948 111.197 50.665C111.249 50.5452 111.26 50.4271 111.242 50.3281C111.226 50.2391 111.18 50.1242 111.047 49.9971L73.3633 13.9717C73.2237 13.8383 73.0181 13.7501 72.7881 13.75ZM34.8477 13.75H18.0605C17.6675 13.75 17.4349 13.9542 17.335 14.1836C17.2829 14.3031 17.2724 14.4206 17.29 14.5195C17.306 14.6085 17.3514 14.7235 17.4834 14.8506L54.8984 50.876C55.0379 51.0101 55.2438 51.0995 55.4746 51.0996H72.5312C72.9249 51.0996 73.1571 50.8947 73.2568 50.665C73.3088 50.5452 73.3197 50.4271 73.3018 50.3281C73.2855 50.2391 73.2394 50.1242 73.1064 49.9971L35.4229 13.9717C35.2833 13.8383 35.0777 13.75 34.8477 13.75Z" stroke="url(#paint0_linear_302_49)" stroke-width="3.5"/>
<path d="M14.772 85V64.3H19.524L28.092 78.232H25.788L34.176 64.3H38.964L39.036 85H33.708L33.672 72.4H34.464L28.128 82.804H25.572L19.02 72.4H20.064V85H14.772ZM51.0653 85.396C48.8333 85.396 46.8413 84.94 45.0893 84.028C43.3373 83.092 41.9573 81.808 40.9493 80.176C39.9413 78.544 39.4373 76.696 39.4373 74.632C39.4373 72.568 39.9413 70.732 40.9493 69.124C41.9573 67.516 43.3373 66.244 45.0893 65.308C46.8413 64.372 48.8333 63.904 51.0653 63.904C53.2973 63.904 55.2893 64.372 57.0413 65.308C58.7933 66.244 60.1733 67.516 61.1813 69.124C62.1893 70.732 62.6933 72.568 62.6933 74.632C62.6933 76.696 62.1893 78.544 61.1813 80.176C60.1733 81.808 58.7933 83.092 57.0413 84.028C55.2893 84.94 53.2973 85.396 51.0653 85.396ZM51.0653 80.752C52.2173 80.752 53.2253 80.5 54.0893 79.996C54.9773 79.468 55.6733 78.736 56.1773 77.8C56.6813 76.864 56.9333 75.82 56.9333 74.668C56.9333 73.468 56.6813 72.412 56.1773 71.5C55.6733 70.588 54.9773 69.868 54.0893 69.34C53.2253 68.812 52.2173 68.548 51.0653 68.548C49.9373 68.548 48.9293 68.812 48.0413 69.34C47.1533 69.868 46.4453 70.588 45.9173 71.5C45.4133 72.412 45.1613 73.456 45.1613 74.632C45.1613 75.808 45.4133 76.864 45.9173 77.8C46.4453 78.736 47.1533 79.468 48.0413 79.996C48.9293 80.5 49.9373 80.752 51.0653 80.752ZM68.3943 85L59.3943 64.3H65.4423L73.0743 82.48H69.5823L77.3583 64.3H83.0103L74.0103 85H68.3943ZM87.094 72.436H97.102V76.576H87.094V72.436ZM87.67 80.644H98.722V85H82.054V64.3H98.326V68.656H87.67V80.644ZM108.843 85.396C106.803 85.396 105.051 85.024 103.587 84.28C102.123 83.536 100.995 82.468 100.203 81.076C99.4345 79.66 99.0505 77.992 99.0505 76.072V64.3H104.739V75.892C104.739 77.5 105.099 78.712 105.819 79.528C106.539 80.344 107.571 80.752 108.915 80.752C110.259 80.752 111.279 80.344 111.975 79.528C112.671 78.712 113.019 77.5 113.019 75.892V64.3H118.635V76.072C118.635 77.992 118.251 79.66 117.483 81.076C116.715 82.468 115.599 83.536 114.135 84.28C112.671 85.024 110.907 85.396 108.843 85.396ZM120.346 85V64.3H129.778C131.698 64.3 133.342 64.612 134.71 65.236C136.102 65.836 137.182 66.7 137.95 67.828C138.718 68.956 139.102 70.324 139.102 71.932C139.102 73.492 138.718 74.848 137.95 76C137.182 77.152 136.102 78.028 134.71 78.628C133.342 79.228 131.698 79.528 129.778 79.528H123.478L126.034 77.044V85H120.346ZM126.034 77.692L123.946 75.136H129.382C130.702 75.136 131.698 74.86 132.37 74.308C133.042 73.732 133.378 72.94 133.378 71.932C133.378 70.9 133.042 70.108 132.37 69.556C131.698 69.004 130.702 68.728 129.382 68.728H123.946L126.034 66.172V77.692ZM18.66 116V99.728H12.144V95.3H30.864V99.728H24.348V116H18.66ZM35.2315 103.436H45.2395V107.576H35.2315V103.436ZM35.8075 111.644H46.8595V116H30.1915V95.3H46.4635V99.656H35.8075V111.644ZM57.448 116.396C55.24 116.396 53.26 115.94 51.508 115.028C49.78 114.092 48.412 112.82 47.404 111.212C46.396 109.58 45.892 107.732 45.892 105.668C45.892 103.58 46.396 101.732 47.404 100.124C48.412 98.492 49.78 97.22 51.508 96.308C53.26 95.372 55.24 94.904 57.448 94.904C59.392 94.904 61.096 95.204 62.56 95.804C64.048 96.38 65.32 97.34 66.376 98.684L62.704 102.032C62.008 101.192 61.24 100.568 60.4 100.16C59.56 99.752 58.648 99.548 57.664 99.548C56.488 99.548 55.444 99.812 54.532 100.34C53.62 100.844 52.9 101.552 52.372 102.464C51.868 103.376 51.616 104.444 51.616 105.668C51.616 106.868 51.868 107.924 52.372 108.836C52.9 109.748 53.62 110.468 54.532 110.996C55.444 111.5 56.488 111.752 57.664 111.752C58.648 111.752 59.56 111.548 60.4 111.14C61.24 110.732 62.008 110.108 62.704 109.268L66.376 112.616C65.32 113.936 64.048 114.896 62.56 115.496C61.096 116.096 59.392 116.396 57.448 116.396ZM66.3392 116V95.3H71.0192L82.6832 109.304H80.5592V95.3H86.1392V116H81.4592L69.7592 101.996H71.9192V116H66.3392ZM98.2028 116.396C95.9708 116.396 93.9788 115.94 92.2268 115.028C90.4748 114.092 89.0948 112.808 88.0868 111.176C87.0788 109.544 86.5748 107.696 86.5748 105.632C86.5748 103.568 87.0788 101.732 88.0868 100.124C89.0948 98.516 90.4748 97.244 92.2268 96.308C93.9788 95.372 95.9708 94.904 98.2028 94.904C100.435 94.904 102.427 95.372 104.179 96.308C105.931 97.244 107.311 98.516 108.319 100.124C109.327 101.732 109.831 103.568 109.831 105.632C109.831 107.696 109.327 109.544 108.319 111.176C107.311 112.808 105.931 114.092 104.179 115.028C102.427 115.94 100.435 116.396 98.2028 116.396ZM98.2028 111.752C99.3548 111.752 100.363 111.5 101.227 110.996C102.115 110.468 102.811 109.736 103.315 108.8C103.819 107.864 104.071 106.82 104.071 105.668C104.071 104.468 103.819 103.412 103.315 102.5C102.811 101.588 102.115 100.868 101.227 100.34C100.363 99.812 99.3548 99.548 98.2028 99.548C97.0748 99.548 96.0668 99.812 95.1788 100.34C94.2908 100.868 93.5828 101.588 93.0548 102.5C92.5508 103.412 92.2988 104.456 92.2988 105.632C92.2988 106.808 92.5508 107.864 93.0548 108.8C93.5828 109.736 94.2908 110.468 95.1788 110.996C96.0668 111.5 97.0748 111.752 98.2028 111.752ZM110.256 116V95.3H115.944V111.572H126.06V116H110.256ZM135.229 116.396C132.997 116.396 131.005 115.94 129.253 115.028C127.501 114.092 126.121 112.808 125.113 111.176C124.105 109.544 123.601 107.696 123.601 105.632C123.601 103.568 124.105 101.732 125.113 100.124C126.121 98.516 127.501 97.244 129.253 96.308C131.005 95.372 132.997 94.904 135.229 94.904C137.461 94.904 139.453 95.372 141.205 96.308C142.957 97.244 144.337 98.516 145.345 100.124C146.353 101.732 146.857 103.568 146.857 105.632C146.857 107.696 146.353 109.544 145.345 111.176C144.337 112.808 142.957 114.092 141.205 115.028C139.453 115.94 137.461 116.396 135.229 116.396ZM135.229 111.752C136.381 111.752 137.389 111.5 138.253 110.996C139.141 110.468 139.837 109.736 140.341 108.8C140.845 107.864 141.097 106.82 141.097 105.668C141.097 104.468 140.845 103.412 140.341 102.5C139.837 101.588 139.141 100.868 138.253 100.34C137.389 99.812 136.381 99.548 135.229 99.548C134.101 99.548 133.093 99.812 132.205 100.34C131.317 100.868 130.609 101.588 130.081 102.5C129.577 103.412 129.325 104.456 129.325 105.632C129.325 106.808 129.577 107.864 130.081 108.8C130.609 109.736 131.317 110.468 132.205 110.996C133.093 111.5 134.101 111.752 135.229 111.752ZM166.075 113.768C165.307 114.32 164.443 114.8 163.483 115.208C162.547 115.592 161.563 115.88 160.531 116.072C159.523 116.288 158.527 116.396 157.543 116.396C155.239 116.396 153.199 115.94 151.423 115.028C149.647 114.092 148.255 112.808 147.247 111.176C146.263 109.544 145.771 107.708 145.771 105.668C145.771 103.58 146.275 101.732 147.283 100.124C148.291 98.516 149.683 97.244 151.459 96.308C153.235 95.372 155.251 94.904 157.507 94.904C159.523 94.904 161.275 95.216 162.763 95.84C164.275 96.44 165.535 97.364 166.543 98.612L162.799 101.96C162.103 101.144 161.311 100.544 160.423 100.16C159.559 99.752 158.611 99.548 157.579 99.548C156.403 99.548 155.359 99.812 154.447 100.34C153.535 100.844 152.815 101.552 152.287 102.464C151.759 103.376 151.495 104.444 151.495 105.668C151.495 106.844 151.759 107.9 152.287 108.836C152.815 109.748 153.535 110.468 154.447 110.996C155.359 111.5 156.427 111.752 157.651 111.752C158.659 111.752 159.571 111.596 160.387 111.284C161.227 110.972 162.055 110.504 162.871 109.88L166.075 113.768ZM160.891 113.84V105.38H166.075V113.768L160.891 113.84ZM167.413 116V95.3H173.101V116H167.413ZM171.897 116L181.185 95.3H186.801L196.125 116H190.509L183.057 98.036H184.965L177.405 116H171.897ZM176.973 111.896L178.449 107.792H188.673L190.149 111.896H176.973Z" fill="white"/>
<path d="M13.26 133V126.22H14.124V133H13.26ZM17.8467 133V126.22H18.5907L21.6507 131.368H21.3027L24.3387 126.22H25.0827V133H24.2547V127.54H24.3987L21.6627 132.148H21.2667L18.4827 127.54H18.6747V133H17.8467ZM28.8084 133V126.22H31.4364C32.0284 126.22 32.5324 126.312 32.9484 126.496C33.3724 126.68 33.7004 126.948 33.9324 127.3C34.1644 127.644 34.2804 128.064 34.2804 128.56C34.2804 129.048 34.1644 129.468 33.9324 129.82C33.7004 130.172 33.3724 130.44 32.9484 130.624C32.5324 130.808 32.0284 130.9 31.4364 130.9H29.2884L29.6724 130.504V133H28.8084ZM29.6724 130.588L29.3364 130.18H31.4004C32.0564 130.18 32.5564 130.04 32.9004 129.76C33.2444 129.472 33.4164 129.072 33.4164 128.56C33.4164 128.04 33.2444 127.64 32.9004 127.36C32.5564 127.08 32.0564 126.94 31.4004 126.94H29.3364L29.6724 126.532V130.588ZM40.2227 133.072C39.6227 133.072 39.1067 132.96 38.6747 132.736C38.2507 132.504 37.9227 132.168 37.6907 131.728C37.4587 131.288 37.3427 130.752 37.3427 130.12V126.22H38.2067V130.096C38.2067 130.84 38.3827 131.4 38.7347 131.776C39.0867 132.144 39.5827 132.328 40.2227 132.328C40.8707 132.328 41.3707 132.144 41.7227 131.776C42.0747 131.4 42.2507 130.84 42.2507 130.096V126.22H43.0907V130.12C43.0907 130.752 42.9747 131.288 42.7427 131.728C42.5187 132.168 42.1907 132.504 41.7587 132.736C41.3347 132.96 40.8227 133.072 40.2227 133.072ZM46.7358 133V126.22H47.5998V132.28H51.3798V133H46.7358ZM58.342 131.152C58.342 131.528 58.238 131.86 58.03 132.148C57.83 132.436 57.534 132.664 57.142 132.832C56.758 132.992 56.282 133.072 55.714 133.072C55.194 133.072 54.694 132.992 54.214 132.832C53.742 132.672 53.37 132.468 53.098 132.22L53.458 131.548C53.706 131.78 54.034 131.972 54.442 132.124C54.858 132.268 55.29 132.34 55.738 132.34C56.362 132.34 56.806 132.232 57.07 132.016C57.342 131.792 57.478 131.528 57.478 131.224C57.478 130.968 57.402 130.768 57.25 130.624C57.098 130.472 56.898 130.352 56.65 130.264C56.402 130.168 56.13 130.088 55.834 130.024C55.538 129.96 55.242 129.888 54.946 129.808C54.65 129.728 54.374 129.62 54.118 129.484C53.87 129.348 53.67 129.168 53.518 128.944C53.374 128.72 53.302 128.424 53.302 128.056C53.302 127.688 53.402 127.36 53.602 127.072C53.802 126.784 54.094 126.556 54.478 126.388C54.862 126.22 55.334 126.136 55.894 126.136C56.294 126.136 56.686 126.188 57.07 126.292C57.462 126.388 57.798 126.536 58.078 126.736L57.766 127.432C57.478 127.232 57.17 127.092 56.842 127.012C56.514 126.924 56.19 126.88 55.87 126.88C55.278 126.88 54.842 126.992 54.562 127.216C54.29 127.432 54.154 127.7 54.154 128.02C54.154 128.276 54.23 128.48 54.382 128.632C54.534 128.776 54.734 128.896 54.982 128.992C55.23 129.08 55.502 129.156 55.798 129.22C56.102 129.284 56.402 129.356 56.698 129.436C56.994 129.516 57.266 129.624 57.514 129.76C57.762 129.888 57.962 130.064 58.114 130.288C58.266 130.512 58.342 130.8 58.342 131.152ZM61.3233 133V126.22H62.1873V133H61.3233ZM68.862 133.072C68.174 133.072 67.554 132.924 67.002 132.628C66.45 132.324 66.014 131.912 65.694 131.392C65.382 130.864 65.226 130.268 65.226 129.604C65.226 128.94 65.382 128.348 65.694 127.828C66.014 127.308 66.45 126.896 67.002 126.592C67.554 126.288 68.174 126.136 68.862 126.136C69.558 126.136 70.178 126.288 70.722 126.592C71.274 126.896 71.706 127.308 72.018 127.828C72.338 128.348 72.498 128.94 72.498 129.604C72.498 130.268 72.338 130.864 72.018 131.392C71.706 131.912 71.274 132.324 70.722 132.628C70.178 132.924 69.558 133.072 68.862 133.072ZM68.862 132.328C69.398 132.328 69.874 132.212 70.29 131.98C70.706 131.74 71.034 131.416 71.274 131.008C71.514 130.592 71.634 130.124 71.634 129.604C71.634 129.084 71.51 128.62 71.262 128.212C71.022 127.804 70.694 127.484 70.278 127.252C69.87 127.012 69.398 126.892 68.862 126.892C68.334 126.892 67.858 127.012 67.434 127.252C67.018 127.484 66.69 127.804 66.45 128.212C66.21 128.62 66.09 129.084 66.09 129.604C66.09 130.124 66.21 130.592 66.45 131.008C66.69 131.416 67.018 131.74 67.434 131.98C67.858 132.212 68.334 132.328 68.862 132.328ZM75.5358 133V126.22H76.2438L80.8518 131.932H80.5158V126.22H81.3798V133H80.6598L76.0518 127.276H76.3998V133H75.5358ZM83.867 133L86.999 126.22H87.851L90.983 133H90.119L87.275 126.688H87.575L84.719 133H83.867ZM85.187 131.248L85.439 130.552H89.303L89.555 131.248H85.187ZM93.4748 133V126.22H94.1828L98.7908 131.932H98.4548V126.22H99.3188V133H98.5988L93.9908 127.276H94.3388V133H93.4748ZM103.042 133V126.22H105.886C106.654 126.22 107.314 126.364 107.866 126.652C108.418 126.932 108.842 127.328 109.138 127.84C109.442 128.344 109.594 128.932 109.594 129.604C109.594 130.284 109.442 130.88 109.138 131.392C108.842 131.896 108.418 132.292 107.866 132.58C107.314 132.86 106.654 133 105.886 133H103.042ZM103.906 132.28H105.85C106.458 132.28 106.978 132.168 107.41 131.944C107.842 131.72 108.17 131.408 108.394 131.008C108.618 130.608 108.73 130.14 108.73 129.604C108.73 129.068 108.618 128.6 108.394 128.2C108.17 127.8 107.842 127.492 107.41 127.276C106.978 127.052 106.458 126.94 105.85 126.94H103.906V132.28ZM115.585 133.072C114.897 133.072 114.277 132.924 113.725 132.628C113.173 132.324 112.737 131.912 112.417 131.392C112.105 130.864 111.949 130.268 111.949 129.604C111.949 128.94 112.105 128.348 112.417 127.828C112.737 127.308 113.173 126.896 113.725 126.592C114.277 126.288 114.897 126.136 115.585 126.136C116.281 126.136 116.901 126.288 117.445 126.592C117.997 126.896 118.429 127.308 118.741 127.828C119.061 128.348 119.221 128.94 119.221 129.604C119.221 130.268 119.061 130.864 118.741 131.392C118.429 131.912 117.997 132.324 117.445 132.628C116.901 132.924 116.281 133.072 115.585 133.072ZM115.585 132.328C116.121 132.328 116.597 132.212 117.013 131.98C117.429 131.74 117.757 131.416 117.997 131.008C118.237 130.592 118.357 130.124 118.357 129.604C118.357 129.084 118.233 128.62 117.985 128.212C117.745 127.804 117.417 127.484 117.001 127.252C116.593 127.012 116.121 126.892 115.585 126.892C115.057 126.892 114.581 127.012 114.157 127.252C113.741 127.484 113.413 127.804 113.173 128.212C112.933 128.62 112.813 129.084 112.813 129.604C112.813 130.124 112.933 130.592 113.173 131.008C113.413 131.416 113.741 131.74 114.157 131.98C114.581 132.212 115.057 132.328 115.585 132.328ZM129.551 133.072C128.863 133.072 128.243 132.924 127.691 132.628C127.139 132.324 126.703 131.912 126.383 131.392C126.071 130.864 125.915 130.268 125.915 129.604C125.915 128.94 126.071 128.348 126.383 127.828C126.703 127.308 127.139 126.896 127.691 126.592C128.243 126.288 128.863 126.136 129.551 126.136C130.247 126.136 130.867 126.288 131.411 126.592C131.963 126.896 132.395 127.308 132.707 127.828C133.027 128.348 133.187 128.94 133.187 129.604C133.187 130.268 133.027 130.864 132.707 131.392C132.395 131.912 131.963 132.324 131.411 132.628C130.867 132.924 130.247 133.072 129.551 133.072ZM129.551 132.328C130.087 132.328 130.563 132.212 130.979 131.98C131.395 131.74 131.723 131.416 131.963 131.008C132.203 130.592 132.323 130.124 132.323 129.604C132.323 129.084 132.199 128.62 131.951 128.212C131.711 127.804 131.383 127.484 130.967 127.252C130.559 127.012 130.087 126.892 129.551 126.892C129.023 126.892 128.547 127.012 128.123 127.252C127.707 127.484 127.379 127.804 127.139 128.212C126.899 128.62 126.779 129.084 126.779 129.604C126.779 130.124 126.899 130.592 127.139 131.008C127.379 131.416 127.707 131.74 128.123 131.98C128.547 132.212 129.023 132.328 129.551 132.328ZM141.933 129.16H145.245V130.612H141.933V129.16ZM142.125 133H140.229V126.1H145.653V127.552H142.125V133ZM151.266 133.132C150.586 133.132 150.002 133.008 149.514 132.76C149.026 132.512 148.65 132.156 148.386 131.692C148.13 131.22 148.002 130.664 148.002 130.024V126.1H149.898V129.964C149.898 130.5 150.018 130.904 150.258 131.176C150.498 131.448 150.842 131.584 151.29 131.584C151.738 131.584 152.078 131.448 152.31 131.176C152.542 130.904 152.658 130.5 152.658 129.964V126.1H154.53V130.024C154.53 130.664 154.402 131.22 154.146 131.692C153.89 132.156 153.518 132.512 153.03 132.76C152.542 133.008 151.954 133.132 151.266 133.132ZM158.797 133V127.576H156.625V126.1H162.865V127.576H160.693V133H158.797ZM168.232 133.132C167.552 133.132 166.968 133.008 166.48 132.76C165.992 132.512 165.616 132.156 165.352 131.692C165.096 131.22 164.968 130.664 164.968 130.024V126.1H166.864V129.964C166.864 130.5 166.984 130.904 167.224 131.176C167.464 131.448 167.808 131.584 168.256 131.584C168.704 131.584 169.044 131.448 169.276 131.176C169.508 130.904 169.624 130.5 169.624 129.964V126.1H171.496V130.024C171.496 130.664 171.368 131.22 171.112 131.692C170.856 132.156 170.484 132.512 169.996 132.76C169.508 133.008 168.92 133.132 168.232 133.132ZM174.467 133V126.1H177.611C178.251 126.1 178.799 126.204 179.255 126.412C179.719 126.612 180.079 126.9 180.335 127.276C180.591 127.652 180.719 128.108 180.719 128.644C180.719 129.164 180.591 129.612 180.335 129.988C180.079 130.364 179.719 130.652 179.255 130.852C178.799 131.052 178.251 131.152 177.611 131.152H175.511L176.363 130.348V133H174.467ZM178.811 133L177.071 130.492H179.087L180.851 133H178.811ZM176.363 130.564L175.667 129.712H177.479C177.919 129.712 178.251 129.62 178.475 129.436C178.699 129.244 178.811 128.98 178.811 128.644C178.811 128.3 178.699 128.036 178.475 127.852C178.251 127.668 177.919 127.576 177.479 127.576H175.667L176.363 126.724V130.564ZM186.762 133.132C186.018 133.132 185.354 132.98 184.77 132.676C184.186 132.364 183.726 131.936 183.39 131.392C183.054 130.848 182.886 130.232 182.886 129.544C182.886 128.856 183.054 128.244 183.39 127.708C183.726 127.172 184.186 126.748 184.77 126.436C185.354 126.124 186.018 125.968 186.762 125.968C187.506 125.968 188.17 126.124 188.754 126.436C189.338 126.748 189.798 127.172 190.134 127.708C190.47 128.244 190.638 128.856 190.638 129.544C190.638 130.232 190.47 130.848 190.134 131.392C189.798 131.936 189.338 132.364 188.754 132.676C188.17 132.98 187.506 133.132 186.762 133.132ZM186.762 131.584C187.146 131.584 187.482 131.5 187.77 131.332C188.066 131.156 188.298 130.912 188.466 130.6C188.634 130.288 188.718 129.94 188.718 129.556C188.718 129.156 188.634 128.804 188.466 128.5C188.298 128.196 188.066 127.956 187.77 127.78C187.482 127.604 187.146 127.516 186.762 127.516C186.386 127.516 186.05 127.604 185.754 127.78C185.458 127.956 185.222 128.196 185.046 128.5C184.878 128.804 184.794 129.152 184.794 129.544C184.794 129.936 184.878 130.288 185.046 130.6C185.222 130.912 185.458 131.156 185.754 131.332C186.05 131.5 186.386 131.584 186.762 131.584ZM193.755 133.084C193.475 133.084 193.243 132.992 193.059 132.808C192.883 132.624 192.795 132.404 192.795 132.148C192.795 131.892 192.883 131.676 193.059 131.5C193.243 131.316 193.475 131.224 193.755 131.224C194.035 131.224 194.263 131.316 194.439 131.5C194.623 131.676 194.715 131.892 194.715 132.148C194.715 132.404 194.623 132.624 194.439 132.808C194.263 132.992 194.035 133.084 193.755 133.084Z" fill="white"/>
<defs>
<linearGradient id="paint0_linear_302_49" x1="-13.6385" y1="2.71698" x2="166.268" y2="73.5879" gradientUnits="userSpaceOnUse">
<stop stop-color="#00D492"/>
<stop offset="1" stop-color="#015693"/>
</linearGradient>
</defs>
</svg>
